<svg width="24" height="25" viewBox="0 0 24 25" fill="none" xmlns="http://www.w3.org/2000/svg">
<path fill-rule="evenodd" clip-rule="evenodd" d="M9.48328 24.8148H14.7356V19.6277H24V14.8423H0V19.6277H9.48328V24.8148Z" fill="#274646"/>
<path fill-rule="evenodd" clip-rule="evenodd" d="M18.7477 0.814941C18.7477 2.60727 18.0368 4.32621 16.7714 5.59357C15.5059 6.86094 13.7896 7.57291 12 7.57291C10.2104 7.57291 8.49408 6.86094 7.22864 5.59357C5.9632 4.32621 5.25229 2.60727 5.25229 0.814941H0C0 4.00237 1.2643 7.05921 3.51473 9.31306C5.76517 11.5669 8.8174 12.8331 12 12.8331C15.1826 12.8331 18.2348 11.5669 20.4853 9.31306C22.7357 7.05921 24 4.00237 24 0.814941H18.7477Z" fill="#274646"/>
</svg>
