<svg width="18" height="19" viewBox="0 0 18 19" fill="none" xmlns="http://www.w3.org/2000/svg">
<circle cx="9" cy="9.81201" r="9" fill="#B20D30"/>
<path d="M4.52029 6.70968L5.81629 5.82168H6.51229V14.2217H4.52029V6.70968ZM7.56989 13.9337L10.6179 10.0937C10.8739 9.77368 11.0619 9.47768 11.1819 9.20568C11.3099 8.92568 11.3739 8.65368 11.3739 8.38968C11.3739 8.05368 11.2699 7.78968 11.0619 7.59768C10.8619 7.40568 10.5779 7.30968 10.2099 7.30968C9.83389 7.30968 9.47389 7.43768 9.12989 7.69368C8.78589 7.94168 8.49389 8.24968 8.25389 8.61768H8.04989L8.14589 6.57768C8.44989 6.28968 8.81389 6.06568 9.23789 5.90568C9.66989 5.73768 10.1059 5.65368 10.5459 5.65368C11.4099 5.65368 12.0859 5.87368 12.5739 6.31368C13.0699 6.74568 13.3179 7.35368 13.3179 8.13768C13.3179 8.62568 13.2379 9.06568 13.0779 9.45768C12.9259 9.84968 12.6419 10.2977 12.2259 10.8017L10.8099 12.5177H13.5579V14.2217H7.56989V13.9337Z" fill="white"/>
</svg>
