<svg width="197" height="17" viewBox="0 0 197 17" fill="none" xmlns="http://www.w3.org/2000/svg">
<path fill-rule="evenodd" clip-rule="evenodd" d="M57.4479 11.744L54.098 0.891785H50.157V16.1961H53.1784V5.97005L56.0685 16.1961H58.7615L61.6516 5.97005V16.1961H64.6731V0.891785H60.732L57.4479 11.744Z" fill="#FFBCC8"/>
<path fill-rule="evenodd" clip-rule="evenodd" d="M3.98139 5.20481C3.98139 4.2309 5.03233 3.25699 7.46262 3.25699C9.89292 3.25699 10.7468 4.09177 11.0752 5.97003H14.3594C14.3594 5.97003 14.3594 0.543945 7.39694 0.543945C4.70391 0.543945 0.762897 1.51786 0.762897 5.34394C0.762897 11.6048 11.2066 7.91786 11.2066 11.7439C11.2066 12.857 10.4841 13.8309 7.85673 13.8309C5.22938 13.8309 4.11276 12.0918 3.78434 11.1179H0.500162C0.500162 11.1179 0.368794 16.5439 7.59399 16.5439C12.4546 16.5439 14.5565 14.1787 14.5565 11.7439C14.5565 4.85699 3.98139 8.40481 3.98139 5.20481Z" fill="#FFBCC8"/>
<path fill-rule="evenodd" clip-rule="evenodd" d="M27.8247 6.94396H19.6799V0.891785H16.4614V16.1961H19.6799V10.0048H27.8247V16.1961H30.9775V0.891785H27.8247V6.94396Z" fill="#FFBCC8"/>
<path fill-rule="evenodd" clip-rule="evenodd" d="M66.9062 3.88309H72.6864V13.2048H66.9062V16.1961H81.4223V13.2048H75.8392V3.88309H81.4223V0.891785H66.9062V3.88309Z" fill="#FFBCC8"/>
<path fill-rule="evenodd" clip-rule="evenodd" d="M33.4077 3.88309H39.1222V13.2048H33.4077V16.1961H47.9238V13.2048H42.3407V3.88309H47.9238V0.891785H33.4077V3.88309Z" fill="#FFBCC8"/>
<path fill-rule="evenodd" clip-rule="evenodd" d="M139.749 11.744L136.4 0.891785H132.458V16.1961H135.48V5.97005L138.37 16.1961H141.063L143.953 5.97005V16.1961H146.975V0.891785H143.034L139.749 11.744Z" fill="#FFBCC8"/>
<path fill-rule="evenodd" clip-rule="evenodd" d="M86.2829 5.20481C86.2829 4.2309 87.3338 3.25699 89.7641 3.25699C92.1944 3.25699 93.0483 4.09177 93.3767 5.97003H96.6609C96.6609 5.97003 96.6609 0.543945 89.7641 0.543945C87.0054 0.543945 83.0644 1.51786 83.0644 5.34394C83.0644 11.6048 93.5081 7.91786 93.5081 11.7439C93.5081 12.857 92.7856 13.8309 90.2239 13.8309C87.6623 13.8309 86.4143 12.0918 86.0859 11.1179H82.8017C82.8017 11.1179 82.6703 16.5439 89.8955 16.5439C94.7561 16.5439 96.858 14.1787 96.858 11.7439C96.858 4.85699 86.2829 8.40481 86.2829 5.20481Z" fill="#FFBCC8"/>
<path fill-rule="evenodd" clip-rule="evenodd" d="M110.126 6.94396H101.981V0.891785H98.8286V16.1961H101.981V10.0048H110.126V16.1961H113.279V0.891785H110.126V6.94396Z" fill="#FFBCC8"/>
<path fill-rule="evenodd" clip-rule="evenodd" d="M149.405 3.88309H155.119V13.2048H149.405V16.1961H163.921V13.2048H158.338V3.88309H163.921V0.891785H149.405V3.88309Z" fill="#FFBCC8"/>
<path fill-rule="evenodd" clip-rule="evenodd" d="M115.709 3.88309H121.424V13.2048H115.709V16.1961H130.225V13.2048H124.642V3.88309H130.225V0.891785H115.709V3.88309Z" fill="#FFBCC8"/>
<path fill-rule="evenodd" clip-rule="evenodd" d="M165.826 9.79596V12.8568H171.606V16.196H174.759V12.8568H180.342V9.79596H165.826Z" fill="#FFBCC8"/>
<path fill-rule="evenodd" clip-rule="evenodd" d="M173.117 5.20483C172.036 5.20483 171.001 4.75042 170.237 3.94157C169.473 3.13271 169.044 2.03567 169.044 0.891785H165.826C165.998 2.80432 166.837 4.58027 168.179 5.87276C169.521 7.16525 171.27 7.88143 173.084 7.88143C174.898 7.88143 176.647 7.16525 177.989 5.87276C179.331 4.58027 180.17 2.80432 180.342 0.891785H177.189C177.189 1.45818 177.084 2.01903 176.879 2.54231C176.674 3.0656 176.374 3.54106 175.996 3.94157C175.618 4.34207 175.169 4.65976 174.675 4.87652C174.181 5.09327 173.651 5.20483 173.117 5.20483Z" fill="#FFBCC8"/>
<path fill-rule="evenodd" clip-rule="evenodd" d="M189.143 0.682861C184.743 0.682861 181.721 3.74373 181.721 8.54373C181.721 13.3437 184.743 16.4046 189.143 16.4046C193.544 16.4046 196.5 13.2046 196.5 8.54373C196.5 3.88286 193.676 0.682861 189.143 0.682861ZM192.296 11.9524C191.883 12.3835 191.389 12.7178 190.846 12.9335C190.302 13.1492 189.722 13.2416 189.143 13.2046C188.554 13.2471 187.963 13.1576 187.408 12.9418C186.854 12.7261 186.348 12.389 185.925 11.9524C185.523 11.497 185.211 10.9606 185.007 10.375C184.804 9.78953 184.714 9.16679 184.743 8.54373C184.693 7.91832 184.772 7.2889 184.976 6.69943C185.179 6.10995 185.502 5.57462 185.921 5.13081C186.34 4.687 186.845 4.34539 187.402 4.12985C187.959 3.91431 188.553 3.83002 189.143 3.88286C189.731 3.82836 190.323 3.91209 190.877 4.12806C191.431 4.34404 191.933 4.68693 192.347 5.13223C192.761 5.57753 193.078 6.11423 193.273 6.70397C193.469 7.29372 193.539 7.92194 193.479 8.54373C193.507 9.16679 193.417 9.78953 193.214 10.375C193.011 10.9606 192.699 11.497 192.296 11.9524Z" fill="#FFBCC8"/>
</svg>
