<svg width="196" height="17" viewBox="0 0 196 17" fill="none" xmlns="http://www.w3.org/2000/svg">
<path fill-rule="evenodd" clip-rule="evenodd" d="M56.9481 11.4142L53.5982 0.562012H49.6572V15.8664H52.6787V5.64027L55.5688 15.8664H58.2618L61.1519 5.64027V15.8664H64.1733V0.562012H60.2323L56.9481 11.4142Z" fill="#274646"/>
<path fill-rule="evenodd" clip-rule="evenodd" d="M3.48139 4.87522C3.48139 3.90131 4.53233 2.9274 6.96262 2.9274C9.39292 2.9274 10.2468 3.76218 10.5752 5.64044H13.8594C13.8594 5.64044 13.8594 0.214355 6.89694 0.214355C4.20391 0.214355 0.262897 1.18827 0.262897 5.01435C0.262897 11.2752 10.7066 7.58827 10.7066 11.4144C10.7066 12.5274 9.98407 13.5013 7.35673 13.5013C4.72938 13.5013 3.61276 11.7622 3.28434 10.7883H0.000161734C0.000161734 10.7883 -0.131206 16.2144 7.09399 16.2144C11.9546 16.2144 14.0565 13.8491 14.0565 11.4144C14.0565 4.5274 3.48139 8.07522 3.48139 4.87522Z" fill="#274646"/>
<path fill-rule="evenodd" clip-rule="evenodd" d="M27.3242 6.61419H19.1794V0.562012H15.9609V15.8664H19.1794V9.67505H27.3242V15.8664H30.477V0.562012H27.3242V6.61419Z" fill="#274646"/>
<path fill-rule="evenodd" clip-rule="evenodd" d="M66.4062 3.55332H72.1864V12.8751H66.4062V15.8664H80.9223V12.8751H75.3392V3.55332H80.9223V0.562012H66.4062V3.55332Z" fill="#274646"/>
<path fill-rule="evenodd" clip-rule="evenodd" d="M32.9082 3.55332H38.6227V12.8751H32.9082V15.8664H47.4243V12.8751H41.8412V3.55332H47.4243V0.562012H32.9082V3.55332Z" fill="#274646"/>
<path fill-rule="evenodd" clip-rule="evenodd" d="M139.249 11.4142L135.899 0.562012H131.958V15.8664H134.979V5.64027L137.87 15.8664H140.563L143.453 5.64027V15.8664H146.474V0.562012H142.533L139.249 11.4142Z" fill="#274646"/>
<path fill-rule="evenodd" clip-rule="evenodd" d="M85.7832 4.87522C85.7832 3.90131 86.8341 2.9274 89.2644 2.9274C91.6947 2.9274 92.5486 3.76218 92.877 5.64044H96.1612C96.1612 5.64044 96.1612 0.214355 89.2644 0.214355C86.5057 0.214355 82.5646 1.18827 82.5646 5.01435C82.5646 11.2752 93.0083 7.58827 93.0083 11.4144C93.0083 12.5274 92.2858 13.5013 89.7242 13.5013C87.1625 13.5013 85.9145 11.7622 85.5861 10.7883H82.3019C82.3019 10.7883 82.1706 16.2144 89.3958 16.2144C94.2563 16.2144 96.3582 13.8491 96.3582 11.4144C96.3582 4.5274 85.7832 8.07522 85.7832 4.87522Z" fill="#274646"/>
<path fill-rule="evenodd" clip-rule="evenodd" d="M109.626 6.61419H101.481V0.562012H98.3281V15.8664H101.481V9.67505H109.626V15.8664H112.779V0.562012H109.626V6.61419Z" fill="#274646"/>
<path fill-rule="evenodd" clip-rule="evenodd" d="M148.905 3.55332H154.62V12.8751H148.905V15.8664H163.421V12.8751H157.838V3.55332H163.421V0.562012H148.905V3.55332Z" fill="#274646"/>
<path fill-rule="evenodd" clip-rule="evenodd" d="M115.209 3.55332H120.923V12.8751H115.209V15.8664H129.725V12.8751H124.142V3.55332H129.725V0.562012H115.209V3.55332Z" fill="#274646"/>
<path fill-rule="evenodd" clip-rule="evenodd" d="M165.326 9.46631V12.5272H171.106V15.8663H174.259V12.5272H179.842V9.46631H165.326Z" fill="#274646"/>
<path fill-rule="evenodd" clip-rule="evenodd" d="M172.617 4.87505C171.537 4.87505 170.501 4.42065 169.737 3.61179C168.974 2.80294 168.545 1.7059 168.545 0.562012H165.326C165.498 2.47455 166.337 4.2505 167.679 5.54299C169.021 6.83547 170.77 7.55166 172.584 7.55166C174.398 7.55166 176.147 6.83547 177.489 5.54299C178.831 4.2505 179.67 2.47455 179.842 0.562012H176.689C176.689 1.12841 176.584 1.68926 176.379 2.21254C176.175 2.73582 175.875 3.21129 175.497 3.61179C175.118 4.0123 174.67 4.32999 174.175 4.54674C173.681 4.76349 173.152 4.87505 172.617 4.87505Z" fill="#274646"/>
<path fill-rule="evenodd" clip-rule="evenodd" d="M188.643 0.353516C184.242 0.353516 181.221 3.41439 181.221 8.21439C181.221 13.0144 184.242 16.0753 188.643 16.0753C193.044 16.0753 196 12.8753 196 8.21439C196 3.55352 193.175 0.353516 188.643 0.353516ZM191.796 11.6231C191.382 12.0542 190.888 12.3884 190.345 12.6042C189.802 12.8199 189.222 12.9122 188.643 12.8753C188.054 12.9178 187.462 12.8283 186.908 12.6125C186.353 12.3967 185.848 12.0596 185.424 11.6231C185.022 11.1676 184.71 10.6312 184.507 10.0457C184.304 9.46018 184.214 8.83744 184.242 8.21439C184.192 7.58897 184.272 6.95955 184.475 6.37008C184.679 5.78061 185.001 5.24528 185.42 4.80146C185.84 4.35765 186.345 4.01605 186.902 3.80051C187.458 3.58496 188.052 3.50067 188.643 3.55352C189.231 3.49901 189.823 3.58274 190.377 3.79872C190.931 4.01469 191.433 4.35759 191.847 4.80288C192.261 5.24818 192.577 5.78488 192.773 6.37463C192.968 6.96437 193.038 7.5926 192.978 8.21439C193.006 8.83744 192.916 9.46018 192.713 10.0457C192.51 10.6312 192.198 11.1676 191.796 11.6231Z" fill="#274646"/>
</svg>
