<svg width="18" height="19" viewBox="0 0 18 19" fill="none" xmlns="http://www.w3.org/2000/svg">
<path d="M11.7611 4.54298L11.761 4.54281L11.7556 4.54793C11.0678 5.20427 10.132 5.57661 9.15302 5.58135L9.1509 5.5814C8.65114 5.59229 8.15435 5.50705 7.69066 5.33099C7.227 5.15493 6.80632 4.8918 6.4538 4.55783C6.10129 4.22387 5.82431 3.82607 5.63925 3.38865C5.4542 2.95125 5.36476 2.48311 5.37619 2.01244L5.37623 2.01244V2.00941V1.59863V1.47363H5.25123H1.00193H0.876928V1.59863V2.00796C0.853053 3.04562 1.05116 4.07697 1.45911 5.03979C1.86724 6.00305 2.47683 6.87755 3.25079 7.61076C4.02474 8.34397 4.94706 8.92074 5.96189 9.30664C6.97614 9.69233 8.06207 9.87947 9.15435 9.85696C10.2313 9.86658 11.2995 9.67256 12.2967 9.28612C13.2943 8.8995 14.2007 8.32795 14.9629 7.60467C16.5339 6.12414 17.4221 4.11222 17.4303 2.00989V2.00941V1.59863V1.47363H17.3053H13.056H12.931V1.59863V2.00941H12.931L12.931 2.01157C12.9393 2.48764 12.8393 2.96002 12.6377 3.39671C12.436 3.83342 12.1372 4.22446 11.7611 4.54298ZM10.994 6.31633C11.5762 6.0841 12.1014 5.73922 12.5358 5.30336C13.3285 4.56616 13.8279 3.59152 13.9493 2.54518H16.2169C16.0835 4.15606 15.3668 5.67662 14.1841 6.84795C12.8196 8.08568 11.002 8.77762 9.11022 8.77762C7.21845 8.77762 5.40096 8.08568 4.03644 6.84795C2.85375 5.67661 2.13699 4.15605 2.00355 2.54518H4.27122C4.39268 3.59184 4.89221 4.56676 5.6854 5.30405C6.13629 5.74211 6.67679 6.08757 7.27338 6.31944C7.86971 6.55121 8.50967 6.66465 9.15373 6.65293C9.78503 6.66318 10.4118 6.5486 10.994 6.31633Z" fill="#006666" stroke="#006666" stroke-width="0.25"/>
<path d="M8.06455 13.8398V13.7148H7.93955H1.99415V11.9109H16.3131V13.7148H10.4544H10.3294V13.8398V16.9188H8.06455V13.8398ZM1.00195 10.8394H0.876953V10.9644V14.2505V14.6613V14.7863H1.00195H6.94735V17.8654V17.9904H7.07235H11.3216H11.4466V17.8654V14.7863H17.3053H17.4303V14.6613V10.9644V10.8394H17.3053H1.00195Z" fill="#006666" stroke="#006666" stroke-width="0.25"/>
</svg>
